<?xml version="1.0" encoding="UTF-8"?>
<svg xmlns="http://www.w3.org/2000/svg" width="512" height="512" viewBox="0 0 512 512">
<defs>
<linearGradient id="ca-bg" x1="0.2" y1="0" x2="0.8" y2="1"><stop offset="0" stop-color="#fbfbfd"/><stop offset="1" stop-color="#dfe3ee"/></linearGradient>
<linearGradient id="ca-gloss" x1="0" y1="0" x2="0" y2="1"><stop offset="0" stop-color="#fff" stop-opacity=".30"/><stop offset=".55" stop-color="#fff" stop-opacity="0"/></linearGradient>
<linearGradient id="ca-paper" x1="0" y1="0" x2="0" y2="1"><stop offset="0" stop-color="#ffffff"/><stop offset="1" stop-color="#eef1f8"/></linearGradient>
<clipPath id="ca-clip"><rect width="512" height="512" rx="116"/></clipPath>
<filter id="ca-sh" x="-25%" y="-20%" width="150%" height="160%"><feGaussianBlur in="SourceAlpha" stdDeviation="9"/><feOffset dy="9"/><feComponentTransfer><feFuncA type="linear" slope=".30"/></feComponentTransfer><feMerge><feMergeNode/><feMergeNode in="SourceGraphic"/></feMerge></filter>
</defs>
<rect width="512" height="512" rx="116" fill="url(#ca-bg)"/>
<g clip-path="url(#ca-clip)"><rect width="512" height="300" fill="url(#ca-gloss)"/></g>
<rect x="1.5" y="1.5" width="509" height="509" rx="114.5" fill="none" stroke="#fff" stroke-opacity=".16" stroke-width="3"/>
<rect x="90" y="98" width="332" height="332" rx="38" fill="url(#ca-paper)" filter="url(#ca-sh)"/><path d="M90 136a38 38 0 0 1 38-38h256a38 38 0 0 1 38 38v52H90z" fill="#ff4d5e"/><rect x="150" y="70" width="22" height="58" rx="11" fill="#fff"/><rect x="340" y="70" width="22" height="58" rx="11" fill="#fff"/><circle cx="150" cy="236" r="13" fill="#cfd5e2"/><circle cx="150" cy="300" r="13" fill="#cfd5e2"/><circle cx="150" cy="364" r="13" fill="#cfd5e2"/><circle cx="214" cy="236" r="13" fill="#cfd5e2"/><circle cx="214" cy="300" r="13" fill="#cfd5e2"/><circle cx="214" cy="364" r="13" fill="#cfd5e2"/><circle cx="278" cy="236" r="13" fill="#cfd5e2"/><circle cx="278" cy="364" r="13" fill="#cfd5e2"/><circle cx="342" cy="236" r="13" fill="#cfd5e2"/><circle cx="342" cy="300" r="13" fill="#cfd5e2"/><circle cx="342" cy="364" r="13" fill="#cfd5e2"/><circle cx="278" cy="300" r="30" fill="#ff4d5e"/><circle cx="278" cy="300" r="10" fill="#fff"/>
</svg>
